<?xml version="1.0" encoding="utf-8"?>
<!-- Generator: Adobe Illustrator 19.0.0, SVG Export Plug-In . SVG Version: 6.00 Build 0)  -->
<svg version="1.1" id="Layer_1" xmlns="http://www.w3.org/2000/svg" xmlns:xlink="http://www.w3.org/1999/xlink" x="0px" y="0px"
	 viewBox="-436 272 85.1 18" style="enable-background:new -436 272 85.1 18;" xml:space="preserve">
<style type="text/css">
	.st0{fill:#5E79BB;}
	.st1{fill:#EE8190;}
</style>
<path class="st0" d="M-420.7,288.6h-14.7c-0.5,0-0.7-0.2-0.7-0.6v-0.4c0-0.4,0.2-0.6,0.7-0.6h14.7c0.5,0,0.7,0.2,0.7,0.6v0.4
	C-420,288.4-420.2,288.6-420.7,288.6z M-432.9,274.7v6.3c0,0.5,0.1,0.9,0.3,1c0.2,0.2,0.5,0.3,1,0.3h7.1c0.5,0,0.8-0.1,1-0.3
	c0.2-0.2,0.3-0.5,0.3-1v-6.3c0-0.2,0.1-0.4,0.2-0.5c0.1-0.2,0.3-0.2,0.5-0.2h0.5c0.2,0,0.4,0.1,0.5,0.2c0.1,0.2,0.2,0.3,0.2,0.5v6.8
	c0,1.7-0.9,2.5-2.8,2.5h-8c-1.9,0-2.8-0.8-2.8-2.5v-6.8c0-0.2,0.1-0.4,0.2-0.5c0.1-0.2,0.3-0.2,0.5-0.2h0.5c0.2,0,0.4,0.1,0.5,0.2
	C-432.9,274.3-432.9,274.5-432.9,274.7z M-424.3,278.8h-7.3c-0.5,0-0.7-0.2-0.7-0.6v-0.4c0-0.4,0.2-0.6,0.7-0.6h7.3
	c0.5,0,0.7,0.2,0.7,0.6v0.4C-423.6,278.6-423.8,278.8-424.3,278.8z"/>
<path class="st0" d="M-416.6,281.4h2c2.9,0,5.4-0.3,7.6-0.9v-5.8c0-0.2,0.1-0.4,0.2-0.5c0.1-0.2,0.3-0.2,0.5-0.2h0.5
	c0.2,0,0.4,0.1,0.5,0.2c0.1,0.2,0.2,0.3,0.2,0.5v8.8c0,0.2-0.1,0.4-0.2,0.5c-0.1,0.2-0.3,0.2-0.5,0.2h-0.5c-0.2,0-0.4-0.1-0.5-0.2
	c-0.1-0.2-0.2-0.3-0.2-0.5V282c-2.2,0.6-4.8,0.9-7.8,0.9h-2.4c-0.7,0-1.2-0.2-1.7-0.5c-0.4-0.3-0.6-0.9-0.6-1.6v-1.6
	c0-1.1,0.6-1.7,1.9-1.7h5.4c0.3,0,0.5-0.1,0.6-0.1c0.1-0.1,0.2-0.2,0.2-0.5v-0.7c0-0.2-0.1-0.4-0.1-0.4c-0.1-0.1-0.2-0.1-0.4-0.1
	h-6.7c-0.5,0-0.7-0.2-0.7-0.6v-0.4c0-0.4,0.2-0.6,0.7-0.6h8c0.4,0,0.7,0.1,0.9,0.3c0.2,0.2,0.2,0.5,0.2,0.9v2.1
	c0,0.5-0.2,0.9-0.5,1.2c-0.3,0.3-0.7,0.4-1.3,0.4h-5.4c-0.4,0-0.6,0.1-0.7,0.1c-0.1,0.1-0.2,0.3-0.2,0.6v0.6c0,0.4,0.1,0.6,0.2,0.7
	C-417.2,281.3-417,281.4-416.6,281.4z M-410.7,284.3v0.2c0,0.8,0.5,1.6,1.6,2.3c1.1,0.7,2.4,1.2,4.1,1.4c0.4,0.1,0.5,0.3,0.4,0.8
	l-0.1,0.4c-0.1,0.4-0.4,0.5-0.8,0.4c-1.1-0.2-2.3-0.5-3.5-1c-1.1-0.5-2-1.2-2.7-2.1c-0.5,0.6-1,1.2-1.9,1.7c-0.8,0.5-1.6,0.8-2.2,1
	c-0.7,0.2-1.4,0.4-2.2,0.5c-0.5,0.1-0.7-0.1-0.8-0.5l-0.1-0.4c-0.1-0.2-0.1-0.4,0-0.5c0.1-0.2,0.2-0.3,0.4-0.3
	c1.7-0.2,3.1-0.7,4.2-1.4c1.1-0.7,1.6-1.5,1.6-2.4v-0.2c0-0.2,0.1-0.4,0.2-0.5c0.2-0.2,0.3-0.2,0.5-0.2h0.5c0.2,0,0.4,0.1,0.5,0.2
	C-410.7,283.9-410.7,284.1-410.7,284.3z"/>
<path class="st0" d="M-393.9,275.8h-3.6v2c0,1.7,0.4,3.3,1.2,4.9c0.8,1.7,1.9,3,3.2,4.1c0.2,0.2,0.3,0.3,0.3,0.5s-0.1,0.4-0.2,0.6
	l-0.2,0.2c-0.2,0.2-0.3,0.2-0.5,0.2c-0.2,0-0.4-0.1-0.6-0.3c-0.8-0.6-1.6-1.5-2.3-2.5c-0.8-1-1.4-2.2-1.7-3.4
	c-0.4,1.3-0.9,2.4-1.7,3.5c-0.8,1-1.6,1.9-2.4,2.4c-0.5,0.4-0.8,0.4-1.1,0.1l-0.3-0.3c-0.2-0.2-0.2-0.3-0.2-0.5
	c0-0.2,0.1-0.4,0.3-0.5c1.4-1,2.5-2.4,3.3-4.1c0.8-1.7,1.2-3.3,1.2-5v-2.1h-3.4c-0.5,0-0.7-0.2-0.7-0.6v-0.4c0-0.4,0.2-0.6,0.7-0.6
	h8.9c0.5,0,0.7,0.2,0.7,0.6v0.4C-393.2,275.6-393.4,275.8-393.9,275.8z M-389.1,274.6v14.7c0,0.2-0.1,0.4-0.2,0.5
	c-0.1,0.2-0.3,0.2-0.5,0.2h-0.5c-0.2,0-0.4-0.1-0.5-0.2c-0.1-0.2-0.2-0.3-0.2-0.5v-14.7c0-0.2,0.1-0.4,0.2-0.5
	c0.1-0.2,0.3-0.2,0.5-0.2h0.5c0.2,0,0.4,0.1,0.5,0.2C-389.2,274.2-389.1,274.4-389.1,274.6z"/>
<path class="st0" d="M-351.9,288.8c-0.6,0-1-0.5-1-1v-6.1c0-2.8-2.2-5-5-5c-2.8,0-5,2.2-5,5v6.1c0,0.6-0.5,1-1,1c-0.6,0-1-0.5-1-1
	v-6.1c0-3.9,3.2-7.1,7.1-7.1c3.9,0,7.1,3.2,7.1,7.1v6.1C-350.9,288.3-351.4,288.8-351.9,288.8z"/>
<path class="st0" d="M-375.9,286.5c-2.6,0-4.7-2.1-4.7-4.7s2.1-4.7,4.7-4.7c0.5,0,0.9,0.4,0.9,0.9s-0.4,0.9-0.9,0.9
	c-1.7,0-3,1.4-3,3s1.4,3,3,3c1.7,0,3-1.4,3-3c0-0.5,0.4-0.9,0.9-0.9s0.9,0.4,0.9,0.9C-371.1,284.4-373.2,286.5-375.9,286.5z"/>
<path class="st0" d="M-375.9,289.5c-4.3,0-7.7-3.4-7.7-7.7c0-4.3,3.5-7.7,7.7-7.7c0.5,0,0.9,0.4,0.9,0.9s-0.4,0.9-0.9,0.9
	c-3.3,0-6,2.7-6,6s2.7,6,6,6c3.3,0,6-2.7,6-6c0-0.5,0.4-0.9,0.9-0.9s0.9,0.4,0.9,0.9C-368.2,286-371.6,289.5-375.9,289.5z"/>
<path class="st1" d="M-369.7,280.5c-0.5,0-0.9-0.4-0.9-0.9c0-1.7-1.4-3-3-3c-0.5,0-0.9-0.4-0.9-0.9s0.4-0.9,0.9-0.9
	c2.6,0,4.7,2.1,4.7,4.7C-368.8,280.2-369.2,280.5-369.7,280.5z"/>
<path class="st1" d="M-366.7,280.5c-0.5,0-0.9-0.4-0.9-0.9c0-3.3-2.7-6-6-6c-0.5,0-0.9-0.4-0.9-0.9s0.4-0.8,0.9-0.8
	c4.3,0,7.7,3.4,7.7,7.7C-365.9,280.2-366.2,280.5-366.7,280.5z"/>
</svg>
